<?xml version="1.0" encoding="UTF-8" standalone="no"?>
<!-- Created with Inkscape (http://www.inkscape.org/) -->

<svg
   xmlns:dc="http://purl.org/dc/elements/1.1/"
   xmlns:cc="http://creativecommons.org/ns#"
   xmlns:rdf="http://www.w3.org/1999/02/22-rdf-syntax-ns#"
   xmlns:svg="http://www.w3.org/2000/svg"
   xmlns="http://www.w3.org/2000/svg"
   xmlns:sodipodi="http://sodipodi.sourceforge.net/DTD/sodipodi-0.dtd"
   xmlns:inkscape="http://www.inkscape.org/namespaces/inkscape"
   width="512"
   height="512"
   id="svg2"
   version="1.1"
   inkscape:version="0.48.4 r9939"
   sodipodi:docname="icon todo.png">
  <defs
     id="defs4" />
  <sodipodi:namedview
     id="base"
     pagecolor="#ffffff"
     bordercolor="#666666"
     borderopacity="1.0"
     inkscape:pageopacity="0.0"
     inkscape:pageshadow="2"
     inkscape:zoom="1.4"
     inkscape:cx="226.88058"
     inkscape:cy="244.26487"
     inkscape:document-units="px"
     inkscape:current-layer="layer1"
     showgrid="false"
     inkscape:window-width="1920"
     inkscape:window-height="1027"
     inkscape:window-x="-8"
     inkscape:window-y="-8"
     inkscape:window-maximized="1" />
  <metadata
     id="metadata7">
    <rdf:RDF>
      <cc:Work
         rdf:about="">
        <dc:format>image/svg+xml</dc:format>
        <dc:type
           rdf:resource="http://purl.org/dc/dcmitype/StillImage" />
        <dc:title></dc:title>
      </cc:Work>
    </rdf:RDF>
  </metadata>
  <g
     inkscape:label="Layer 1"
     inkscape:groupmode="layer"
     id="layer1"
     transform="translate(0,-540.36218)"
     style="display:inline">
    <path
       style="color:#000000;fill:#333333;fill-opacity:1;fill-rule:nonzero;stroke:#000000;stroke-width:0.99805069;stroke-linecap:butt;stroke-linejoin:miter;stroke-miterlimit:4;stroke-opacity:1;stroke-dashoffset:0;marker:none;visibility:visible;display:inline;overflow:visible;enable-background:accumulate"
       d="m 69.149678,541.36121 372.700642,0 c 38.30946,0 69.15065,30.84119 69.15065,69.15065 l 0,372.70064 c 0,38.3095 -30.84119,69.1507 -69.15065,69.1507 l -372.700642,0 c -38.309461,0 -69.15065265887,-30.8412 -69.15065265887,-69.1507 l 0,-372.70064 c 0,-38.30946 30.84119165887,-69.15065 69.15065265887,-69.15065 z"
       id="rect3804"
       inkscape:connector-curvature="0" />
    <path
       style="color:#000000;fill:#cccccf;fill-opacity:1;fill-rule:nonzero;stroke:#000000;stroke-width:1;stroke-linecap:butt;stroke-linejoin:miter;stroke-miterlimit:4;stroke-opacity:1;stroke-dashoffset:0;marker:none;visibility:visible;display:inline;overflow:visible;enable-background:accumulate"
       d="m 69.28125,543.01843 c -36.964181,0 -66.625,29.66082 -66.625,66.625 l 0,373.4375 c 0,36.96417 29.660819,66.62497 66.625,66.62497 l 373.4375,0 c 36.96418,0 66.625,-29.6608 66.625,-66.62497 l 0,-373.4375 c 0,-36.96418 -29.66082,-66.625 -66.625,-66.625 l -373.4375,0 z"
       id="path3809"
       inkscape:connector-curvature="0" />
    <path
       style="color:#000000;fill:#333333;fill-opacity:1;fill-rule:nonzero;stroke:#000000;stroke-width:1;stroke-linecap:butt;stroke-linejoin:miter;stroke-miterlimit:4;stroke-opacity:1;stroke-dashoffset:0;marker:none;visibility:visible;display:inline;overflow:visible;enable-background:accumulate"
       d="m 69.28125,575.86218 c -19.387349,0 -33.78125,14.3939 -33.78125,33.78125 l 0,373.4375 c 0,19.38737 14.393901,33.78127 33.78125,33.78127 l 373.4375,0 c 19.38735,0 33.78125,-14.3939 33.78125,-33.78127 l 0,-373.4375 c 0,-19.38735 -14.3939,-33.78125 -33.78125,-33.78125 l -373.4375,0 z"
       id="path3814"
       inkscape:connector-curvature="0" />
    <path
       style="opacity:0.95614032;fill:#5d98db;fill-opacity:1;stroke:#000000;stroke-width:0.90275282px;stroke-linecap:butt;stroke-linejoin:miter;stroke-opacity:1"
       d="M 65.951391,790.11409 198.74179,966.22697 446.04861,646.76637 421.54162,626.49738 199.78451,901.44088 94.118716,769.33582 z"
       id="path3833"
       inkscape:connector-curvature="0"
       sodipodi:nodetypes="ccccccc" />
  </g>
</svg>
